<svg height="28" fill="none" xmlns="http://www.w3.org/2000/svg" width="112" viewBox="0 0 112 28"><path fill="white" d="M28 0H0V12.5926C0.296296 23.6296 10.2222 26.963 14 28C26.7407 24.4444 27.5556 16.8889 28 12.5926V0Z"></path><path fill="black" d="M8.14795 9.62934C8.14795 6.43836 10.7347 3.85156 13.9257 3.85156H19.7035V9.62934C19.7035 12.8203 17.1167 15.4071 13.9257 15.4071C10.7347 15.4071 8.14795 12.8203 8.14795 9.62934Z"></path><circle cx="13.9257" cy="9.62985" r="2.51852" fill="white"></circle><path fill="black" d="M8.14795 20.4445C8.14795 18.5627 9.6735 17.0371 11.5554 17.0371H19.8517C19.8517 18.919 18.3261 20.4445 16.4442 20.4445H8.14795Z"></path></svg>


